# xmcd CD database file
#
# Track frame offsets:
#	150
#	19027
#	30082
#	41377
#	54397
#	68997
#	84637
#	98142
#	110935
#	126007
#	143617
#	161472
#	174225
#	191417
#	207967
#
# Disc length: 2918 seconds
#
# Revision: 0
# Processed by: cddbd v1.5.1PL0 Copyright (c) Steve Scherf et al.
# Submitted via: CDex 1.51
#
DISCID=bc0b640f
DTITLE=Various Artist - Country Dude - 30 Greatest Country Classics [CD2]
DYEAR=2002
DGENRE=Country
TTITLE0=Man Of Constant Sorrow
TTITLE1=Orange  Blossom Special
TTITLE2=Ring Of Fire
TTITLE3=T-R-O-U-B-L-E
TTITLE4=Forty Hour Week (For A Livin')
TTITLE5=The Devil Went Down To Georgia
TTITLE6=Watermelon Crawl
TTITLE7=The Race Is On
TTITLE8=Friends In Low Places
TTITLE9=Only In America
TTITLE10=Amazed
TTITLE11=Where The Blacktop Ends
TTITLE12=Just Another Day In Paradise
TTITLE13=We Danced
TTITLE14=On The Road Again
EXTD=YEAR: 2002
EXTT0=
EXTT1=
EXTT2=
EXTT3=
EXTT4=
EXTT5=
EXTT6=
EXTT7=
EXTT8=
EXTT9=
EXTT10=
EXTT11=
EXTT12=
EXTT13=
EXTT14=
PLAYORDER=
